<svg width="60" height="60" viewBox="0 0 60 60" fill="none" xmlns="http://www.w3.org/2000/svg">
<g id="Logo">
<path id="Rectangle" d="M0 0H60V60H0V0Z" fill="#EC7E1A"/>
<path id="S" d="M25.3487 21.6328C25.183 20.0821 24.4846 18.8747 23.2535 18.0106C22.0343 17.1465 20.4481 16.7144 18.495 16.7144C17.1219 16.7144 15.9441 16.9216 14.9616 17.3359C13.9791 17.7502 13.2275 18.3125 12.7067 19.0227C12.1858 19.7329 11.9195 20.5438 11.9076 21.4552C11.9076 22.2128 12.0793 22.8697 12.4226 23.4261C12.7777 23.9824 13.2571 24.4559 13.8608 24.8465C14.4645 25.2253 15.1333 25.5449 15.8672 25.8054C16.6011 26.0658 17.3409 26.2848 18.0866 26.4623L21.4957 27.3146C22.8688 27.6342 24.1887 28.0662 25.4552 28.6108C26.7336 29.1553 27.8759 29.8418 28.8821 30.6704C29.9001 31.499 30.705 32.4992 31.2969 33.6711C31.8887 34.843 32.1846 36.2161 32.1846 37.7904C32.1846 39.9211 31.6401 41.7973 30.5511 43.419C29.4621 45.0288 27.8878 46.2895 25.8281 47.201C23.7803 48.1006 21.3004 48.5504 18.3885 48.5504C15.5594 48.5504 13.1032 48.1124 11.0199 47.2365C8.94837 46.3605 7.32668 45.0821 6.15481 43.4012C4.99477 41.7204 4.3674 39.6725 4.27271 37.2578H10.7535C10.8482 38.5243 11.2389 39.5778 11.9254 40.4183C12.612 41.2587 13.5057 41.8861 14.6065 42.3004C15.7192 42.7147 16.9621 42.9218 18.3352 42.9218C19.7675 42.9218 21.0222 42.7088 22.0994 42.2826C23.1884 41.8447 24.0407 41.241 24.6562 40.4715C25.2718 39.6903 25.5854 38.7788 25.5973 37.7372C25.5854 36.7902 25.3073 36.009 24.7628 35.3934C24.2183 34.7661 23.4548 34.2452 22.4723 33.8309C21.5016 33.4048 20.3653 33.026 19.0632 32.6946L14.9261 31.6292C11.9313 30.8598 9.5639 29.6938 7.82384 28.1313C6.09562 26.557 5.23151 24.4678 5.23151 21.8636C5.23151 19.7211 5.81153 17.8449 6.97157 16.235C8.14344 14.6252 9.73554 13.3764 11.7478 12.4886C13.7602 11.589 16.0388 11.1392 18.5838 11.1392C21.1643 11.1392 23.4252 11.589 25.3665 12.4886C27.3196 13.3764 28.8525 14.6134 29.9652 16.1995C31.0779 17.7739 31.652 19.5849 31.6875 21.6328H25.3487Z" fill="white"/>
<path id="k" d="M38.1619 39.4419L38.1442 31.6826H39.174L48.9751 20.7274H56.4858L44.4297 34.1507H43.098L38.1619 39.4419ZM32.3026 48.0001V11.6365H38.7301V48.0001H32.3026ZM49.419 48.0001L40.5412 35.5889L44.8736 31.0612L57.1072 48.0001H49.419Z" fill="white"/>
</g>
</svg>
